<svg width="191" height="168" viewBox="0 0 191 168" fill="none" xmlns="http://www.w3.org/2000/svg">
<path d="M0 137.538H22.6792V141.517H0V145.297H27.0136V133.67H4.33444V129.78H27.0136V125.912H0V137.538Z" fill="#1D252C"/>
<path d="M89.8194 129.868H104.289L105.253 135.538H88.8562L89.8194 129.868ZM83.0769 145.296H87.4113L88.3746 139.494H105.734L106.697 145.296H111.032L108.142 125.934H85.9665L83.0769 145.296Z" fill="#1D252C"/>
<path d="M128.786 129.802H147.108V133.67H128.786V129.802ZM151.443 137.538V125.912H124.429V145.275H128.764V137.517H139.622L147.218 145.275H152.406L144.678 137.517H151.443V137.538Z" fill="#1D252C"/>
<path d="M64.6882 126.088L56.0193 140.725L47.3285 126.066V125.912H42.5781V125.978H42.5125L42.5781 126.11V145.297H46.8469V133.385L53.9615 145.297H58.0551L65.1698 133.385V145.297H69.5261V125.912H64.6882V126.088Z" fill="#1D252C"/>
<path d="M191 125.912H163.986V129.802H175.37V145.297H179.638V129.802H191V125.912Z" fill="#1D252C"/>
<path d="M61.7329 23.2529V58.1101H108.033V50.3738H71.365V30.9892L123.466 31.0112V23.2529H61.7329Z" fill="#1D252C"/>
<path d="M61.7329 71.6706V63.9344H113.921V44.5497H77.1661V36.8135H123.466V71.6706H61.7329Z" fill="#C89211"/>
<path d="M123.488 77.4941H61.7329V79.4282H123.488V77.4941Z" fill="#C89211"/>
<path d="M123.488 92.9893H61.7329V94.9233H123.488V92.9893Z" fill="#C89211"/>
<path d="M123.488 85.2305H61.7329V87.1645H123.488V85.2305Z" fill="#C89211"/>
<path d="M123.488 15.4941H61.7329V17.4282H123.488V15.4941Z" fill="#1D252C"/>
<path d="M123.488 0H61.7329V1.93407H123.488V0Z" fill="#1D252C"/>
<path d="M123.488 7.75781H61.7329V9.69188H123.488V7.75781Z" fill="#1D252C"/>
<path d="M32.6179 167.626V157.495H27.4297V167.626H24.7371V155.604H35.2886V167.626H32.6179Z" fill="#1D252C"/>
<path d="M48.664 167.626V157.495H45.9714L42.425 167.626H39.6667L43.9793 155.604H51.3566V167.626H48.664Z" fill="#1D252C"/>
<path d="M65.783 167.626L64.6008 164.374H59.6535L58.4713 167.626H55.6912L60.2226 155.604H64.0317L68.5631 167.626H65.783ZM62.149 157.363L60.2226 162.637H64.0536L62.149 157.363Z" fill="#1D252C"/>
<path d="M77.407 157.473V167.604H74.7363V157.473H70.9272V155.604H81.2161V157.473H77.407Z" fill="#1D252C"/>
<path d="M101.684 161.605C101.684 162.703 101.597 163.539 101.4 164.132C101.203 164.725 100.918 165.143 100.546 165.429C100.174 165.692 99.6704 165.868 99.1012 165.912C98.5102 165.956 97.8315 165.978 97.0216 165.978H94.8981V168H92.2274V165.978H90.1259C89.3378 165.978 88.6373 165.956 88.0462 165.912C87.4552 165.868 86.9735 165.714 86.5795 165.429C86.1855 165.165 85.9009 164.725 85.7257 164.132C85.5287 163.539 85.4412 162.703 85.4412 161.605C85.4412 160.506 85.5506 159.649 85.7695 159.033C85.9884 158.418 86.3168 157.978 86.7109 157.714C87.1268 157.429 87.6084 157.275 88.1776 157.231C88.7686 157.187 89.4035 157.165 90.1478 157.165H92.2274V155.209H94.8981V157.165H96.9778C97.7002 157.165 98.335 157.187 98.9261 157.231C99.5171 157.275 99.9988 157.451 100.415 157.714C100.831 158 101.137 158.44 101.356 159.033C101.575 159.649 101.684 160.506 101.684 161.605ZM92.2274 158.901H90.1478C89.7318 158.901 89.3816 158.923 89.1189 158.945C88.8562 158.967 88.6592 159.077 88.5278 159.231C88.3965 159.407 88.287 159.671 88.2432 160.044C88.1994 160.418 88.1776 160.945 88.1776 161.605C88.1776 162.264 88.1994 162.769 88.2432 163.121C88.287 163.473 88.3746 163.736 88.5278 163.89C88.6592 164.044 88.8562 164.154 89.1189 164.176C89.3816 164.198 89.7099 164.22 90.104 164.22H92.2055V158.901H92.2274ZM98.9261 161.605C98.9261 160.923 98.9042 160.418 98.8604 160.044C98.8166 159.671 98.7291 159.407 98.5758 159.231C98.4445 159.077 98.2475 158.967 97.9848 158.945C97.7221 158.923 97.3937 158.901 96.9559 158.901H94.8762V164.22H96.9997C97.4156 164.22 97.744 164.198 97.9848 164.176C98.2256 164.154 98.4226 164.044 98.5539 163.89C98.6853 163.736 98.7729 163.473 98.8385 163.121C98.9042 162.769 98.9261 162.264 98.9261 161.605Z" fill="#1D252C"/>
<path d="M117.512 161.736C117.512 162.659 117.49 163.451 117.468 164.088C117.424 164.747 117.358 165.297 117.227 165.758C117.096 166.22 116.921 166.572 116.68 166.835C116.439 167.099 116.133 167.319 115.717 167.473C115.323 167.627 114.819 167.714 114.206 167.758C113.615 167.802 112.893 167.824 112.039 167.824C111.185 167.824 110.463 167.802 109.872 167.758C109.259 167.714 108.755 167.627 108.361 167.473C107.945 167.319 107.639 167.121 107.398 166.835C107.157 166.572 106.982 166.198 106.851 165.758C106.719 165.297 106.654 164.747 106.61 164.088C106.566 163.429 106.566 162.638 106.566 161.736C106.566 160.308 106.632 159.165 106.741 158.308C106.873 157.473 107.113 156.835 107.507 156.396C107.902 155.956 108.449 155.67 109.171 155.561C109.894 155.429 110.835 155.385 112.039 155.385C112.827 155.385 113.506 155.407 114.097 155.451C114.688 155.495 115.169 155.605 115.585 155.758C116.001 155.912 116.33 156.132 116.57 156.418C116.833 156.703 117.03 157.077 117.161 157.539C117.293 158 117.402 158.594 117.446 159.275C117.49 159.956 117.512 160.791 117.512 161.736ZM114.753 161.649C114.753 160.55 114.732 159.714 114.688 159.121C114.644 158.528 114.535 158.088 114.359 157.824C114.184 157.561 113.922 157.385 113.571 157.341C113.221 157.297 112.739 157.275 112.127 157.275H111.951C111.338 157.275 110.857 157.297 110.507 157.341C110.156 157.385 109.894 157.539 109.718 157.824C109.543 158.088 109.434 158.528 109.39 159.121C109.346 159.714 109.324 160.572 109.324 161.649V161.802C109.324 162.835 109.346 163.649 109.368 164.198C109.412 164.769 109.5 165.165 109.675 165.429C109.85 165.692 110.113 165.846 110.463 165.868C110.813 165.912 111.317 165.934 111.951 165.934H112.127C112.761 165.934 113.265 165.912 113.615 165.868C113.965 165.824 114.228 165.67 114.381 165.429C114.535 165.165 114.644 164.747 114.688 164.198C114.732 163.627 114.732 162.835 114.732 161.802V161.649H114.753Z" fill="#1D252C"/>
<path d="M133.273 159.407C133.273 160.286 133.186 160.945 133.011 161.429C132.835 161.912 132.573 162.264 132.223 162.506C131.872 162.747 131.434 162.879 130.909 162.945C130.384 162.989 129.771 163.033 129.07 163.033H125.546V167.626H122.875V155.604H128.983C129.639 155.604 130.23 155.626 130.778 155.692C131.303 155.736 131.763 155.89 132.135 156.154C132.507 156.396 132.792 156.769 132.989 157.275C133.164 157.78 133.273 158.484 133.273 159.407ZM130.537 159.363C130.537 158.857 130.515 158.462 130.449 158.198C130.406 157.934 130.296 157.736 130.143 157.604C129.99 157.473 129.771 157.407 129.486 157.385C129.202 157.363 128.829 157.341 128.37 157.341H125.546V161.253H128.435C128.895 161.253 129.245 161.253 129.53 161.231C129.793 161.209 130.011 161.143 130.165 161.011C130.318 160.879 130.427 160.703 130.471 160.44C130.515 160.176 130.537 159.846 130.537 159.363Z" fill="#1D252C"/>
<path d="M149.648 167.626V157.978L146.474 167.626H143.803L140.629 157.978V167.626H138.177V155.604H141.986L145.16 165.231L148.334 155.604H152.121V167.626H149.648Z" fill="#1D252C"/>
<path d="M166.57 167.626L165.387 164.374H160.44L159.258 167.626H156.478L161.009 155.604H164.818L169.35 167.626H166.57ZM162.936 157.363L161.009 162.637H164.84L162.936 157.363Z" fill="#1D252C"/>
</svg>
